<?xml version="1.0" ?>
<!-- Uploaded to: SVG Repo, www.svgrepo.com, Generator: SVG Repo Mixer Tools -->
<svg width="800px" height="800px" viewBox="0 -5.57 20.021988 20.021988" id="svg8" version="1.1" xmlns="http://www.w3.org/2000/svg" xmlns:cc="http://creativecommons.org/ns#" xmlns:dc="http://purl.org/dc/elements/1.1/" xmlns:inkscape="http://www.inkscape.org/namespaces/inkscape" xmlns:rdf="http://www.w3.org/1999/02/22-rdf-syntax-ns#" xmlns:sodipodi="http://sodipodi.sourceforge.net/DTD/sodipodi-0.dtd" xmlns:svg="http://www.w3.org/2000/svg">
<defs id="defs2">
<clipPath clipPathUnits="userSpaceOnUse" id="clipPath23">
<rect height="170.00711" id="rect25" style="opacity:1;fill:none;fill-opacity:1;stroke:#000000;stroke-width:1.5;stroke-linecap:round;stroke-linejoin:round;stroke-miterlimit:4;stroke-dasharray:none;stroke-dashoffset:0;stroke-opacity:0.97641512" transform="rotate(90)" width="263.84616" x="6.7847877" y="110.36194"/>
</clipPath>
</defs>
<g id="layer1" transform="translate(22.839175,-457.94934)">
<rect height="58.184261" id="rect8011" ry="1.1433572" style="opacity:1;fill:none;fill-opacity:1;stroke:none;stroke-width:1.10699999;stroke-linecap:round;stroke-linejoin:round;stroke-miterlimit:4;stroke-dasharray:none;stroke-dashoffset:0;stroke-opacity:1" width="150.11761" x="-377.22021" y="-198.90477"/>
</g>
<g id="g8681" transform="translate(22.839175,-457.94934)">
<rect height="58.184261" id="rect8677" ry="1.1433572" style="opacity:1;fill:none;fill-opacity:1;stroke:none;stroke-width:1.10699999;stroke-linecap:round;stroke-linejoin:round;stroke-miterlimit:4;stroke-dasharray:none;stroke-dashoffset:0;stroke-opacity:1" width="150.11761" x="-377.22021" y="-198.90477"/>
</g>
<g id="g9233" transform="translate(22.839175,-457.94934)">
<rect height="58.184261" id="rect9229" ry="1.1433572" style="opacity:1;fill:none;fill-opacity:1;stroke:none;stroke-width:1.10699999;stroke-linecap:round;stroke-linejoin:round;stroke-miterlimit:4;stroke-dasharray:none;stroke-dashoffset:0;stroke-opacity:1" width="150.11761" x="-377.22021" y="-198.90477"/>
<rect height="368.83194" id="rect9311" ry="1.1433572" style="opacity:1;fill:none;fill-opacity:1;stroke:none;stroke-width:1.10699999;stroke-linecap:round;stroke-linejoin:round;stroke-miterlimit:4;stroke-dasharray:none;stroke-dashoffset:0;stroke-opacity:1" width="313.2399" x="-594.38983" y="-161.63449"/>
<path d="m -12.093048,458.45881 a 3.1224084,3.2319667 0 0 0 -3.081114,2.73318 1.8624892,1.8077103 0 0 0 -0.333563,-0.0308 1.8624892,1.8077103 0 0 0 -1.042205,0.31153 2.5563577,2.3920206 0 0 0 -2.134951,-1.07835 2.5563577,2.3920206 0 0 0 -2.556365,2.39197 2.5563577,2.3920206 0 0 0 0.376759,1.24415 h -0.432691 c -0.572243,0 -1.032881,0.46066 -1.032881,1.0329 0,0.57222 0.460638,1.03287 1.032881,1.03287 h 14.3058556 c 0.572243,0 1.033167,-0.46065 1.033167,-1.03287 0,-0.57224 -0.460924,-1.0329 -1.033167,-1.0329 h -0.374519 a 1.5520744,1.3694774 0 0 0 0.03829,-0.29458 1.5520744,1.3694774 0 0 0 -1.551991,-1.36956 1.5520744,1.3694774 0 0 0 -0.163826,0.009 3.1224084,3.2319667 0 0 0 0.07254,-0.68492 3.1224084,3.2319667 0 0 0 -3.1223826,-3.23197 z" id="path5013-0" style="opacity:1;fill:#37c837;fill-opacity:1;stroke:#241f1c;stroke-width:1.01823282;stroke-linecap:round;stroke-linejoin:round;stroke-miterlimit:4;stroke-dasharray:none;stroke-dashoffset:0;stroke-opacity:1"/>
<path d="m -10.7511,461.37872 a 2.3501239,2.349591 0 0 0 -2.35019,2.3496 2.3501239,2.349591 0 0 0 0.0547,0.49795 1.1681903,0.99558951 0 0 0 -0.123325,-0.006 1.1681903,0.99558951 0 0 0 -1.12637,0.7369 h -0.8767 c -0.346182,0 -0.62475,0.27856 -0.62475,0.62476 0,0.30776 0.2205,0.56103 0.512638,0.61374 0.07488,0.0801 0.181106,0.13102 0.299938,0.13102 h 11.2479096 c 0.227598,0 0.410944,-0.18335 0.410944,-0.41095 0,-0.12749 -0.05873,-0.23967 -0.149409,-0.31492 -0.02253,-0.17846 -0.136986,-0.32653 -0.2943,-0.39738 -0.05053,-0.0659 -0.113427,-0.12076 -0.185846,-0.16213 a 1.9240779,1.7389632 0 0 0 0.09025,-0.51575 1.9240779,1.7389632 0 0 0 -1.92427,-1.73898 1.9240779,1.7389632 0 0 0 -1.606803,0.78377 1.4018284,1.314178 0 0 0 -0.78433,-0.22623 1.4018284,1.314178 0 0 0 -0.251091,0.0223 2.3501239,2.349591 0 0 0 -2.3191176,-1.98697 z" id="path5013-2-8" style="opacity:1;fill:#5fd35f;fill-opacity:1;stroke:#241f1c;stroke-width:1.0182327;stroke-linecap:round;stroke-linejoin:round;stroke-miterlimit:4;stroke-dasharray:none;stroke-dashoffset:0;stroke-opacity:1"/>
</g>
</svg>