<?xml version="1.0" encoding="iso-8859-1"?>
<!-- Uploaded to: SVG Repo, www.svgrepo.com, Generator: SVG Repo Mixer Tools -->
<svg height="800px" width="800px" version="1.1" id="Layer_1" xmlns="http://www.w3.org/2000/svg" xmlns:xlink="http://www.w3.org/1999/xlink" 
	 viewBox="0 0 512 512" xml:space="preserve">
<g>
	<path style="fill:#BE915A;" d="M23.222,386.825l0.619-0.642c4.664-4.837,13.637-15.072,21.32-29.285
		c9-16.672,13.305-33.514,12.794-50.059l-0.165-5.351l3.894,3.674c3.97,3.748,8.303,7.87,13.082,12.639
		c4.223,4.224,7.396,9.073,9.428,14.413l0.357,0.94l-0.472,0.887c-5.049,9.491-15.796,20.06-27.174,31.247
		c-10.372,10.215-21.097,20.779-29.697,32.383l-3.988,5.381V386.825z"/>
	<path style="fill:#BE915A;" d="M73.206,319.365c4.025,4.026,7,8.581,8.924,13.635c-4.877,9.167-15.515,19.64-26.772,30.709
		c-10.273,10.117-21.221,20.899-29.924,32.644v-8.635c4.49-4.656,13.801-15.205,21.674-29.769
		c9.201-17.041,13.58-34.358,13.06-51.178C64.094,310.475,68.451,314.621,73.206,319.365z"/>
</g>
<g>
	<path style="fill:#D9A361;" d="M85.726,393.876l0.482-0.854c2.702-4.793,7.67-14.598,10.595-26.416
		c5.696-23.061,1.049-42.911-13.439-57.398c-5.433-5.444-10.34-10.068-14.667-14.147l-0.359-0.339
		c-13.889-13.078-21.54-20.282-26.29-33.738c-5.163-14.61-0.676-26.317,2.875-29.337c0.17-0.148,0.342-0.321,0.506-0.501
		l0.094-0.104l0.106-0.091c19.061-16.246,50.841-35.219,77.67-35.219c15.93,0,42.685,4.63,68.559,9.105l0.203,0.035
		c25.431,4.398,49.452,8.551,63.937,8.551c5.034,0,10.828-0.44,16.43-0.867c7.229-0.542,14.701-1.101,22.564-1.101
		c8.075,0,15.204,0.61,21.796,1.864c1.243,0.237,2.595,0.356,4.022,0.356c26.063,0,71.804-38.286,80.708-45.962
		c2.392-2.061,2.798-5.671,0.923-8.216c-9.688-13.133-11.214-23.199-10.787-29.331l0.259-3.721l3.141,2.013
		c10.409,6.67,11.742,16.503,11.903,18.408c0.206,3.239,2.871,5.738,6.071,5.738c0.111,0,0.221-0.003,0.332-0.009
		c3.341-0.187,5.917-3.063,5.739-6.411c-0.02-0.365-0.545-9.035-6.743-17.818l-2.886-4.09l4.967,0.62
		c0.263,0.032,0.527,0.061,0.798,0.061h11.613v20.458c0,2.04,1.012,3.932,2.707,5.059c2.191,1.46,5.247,3.093,8.483,4.82
		l0.335,0.179c7.908,4.207,13.519,7.453,15.268,9.669l0.185,0.233l1.548,3.592h-3.645c-3.354,0-6.082,2.729-6.082,6.082
		c0,3.353,2.728,6.082,6.082,6.082h10.693c0.226,0,0.443-0.018,0.661-0.041l1.158-0.129l0.762,0.881
		c5.288,6.119,11.622,12.477,17.211,18.087c6.804,6.819,13.075,13.195,15.03,16.278l0.38,0.599l-0.04,0.71
		c-0.191,3.392-1.108,5.639-2.726,6.679c-0.586,0.377-1.973,1.013-4.658,1.013c-4.702,0-11.155-1.89-19.18-5.619l-0.039-0.01
		l-0.177-0.091c-0.142-0.064-0.29-0.127-0.438-0.177l-0.192-0.06c-0.167-0.06-0.278-0.092-0.386-0.116l-0.115-0.031l-0.135-0.018
		c-0.157-0.035-0.244-0.056-0.333-0.07c-0.116-0.018-0.199-0.022-0.276-0.027l-0.276-0.029c-0.001,0,0.001,0,0.006,0l-0.227-0.009
		l-0.358,0.009l-0.087,0.088h-0.819c-1.673,0.232-3.467,0.349-5.332,0.349c-14.287,0-29.853-6.75-32.828-8.104l-0.106-0.049
		c-0.811-0.388-1.713-0.593-2.612-0.593c-0.749,0-1.484,0.137-2.185,0.407c-1.553,0.607-2.81,1.835-3.438,3.365
		c-6.98,17.012-41.628,61.755-54.389,77.561c-0.544,0.667-0.927,1.412-1.143,2.223c-10.415,38.422-45.799,39.71-47.301,39.746
		c-3.311,0.057-5.991,2.787-5.991,6.083c0,8.008-2.632,19.859-7.825,35.222l-2.413,7.14l-12.986-51.953v-16.948
		c0-3.353-2.728-6.082-6.082-6.082s-6.082,2.729-6.082,6.082v11.23l-1.64,0.438c-10.503,2.81-25.644,4.235-45.004,4.235
		c-21.773,0-44.045-1.764-58.894-3.242l-3.479-0.347l1.804-2.996c5.918-9.825,8.796-18.299,8.796-25.907
		c0-3.353-2.728-6.082-6.082-6.082s-6.082,2.729-6.082,6.082c0,15.048-18.302,36.063-35.999,56.386l-0.096,0.111
		c-13.784,15.819-28.038,32.176-37.358,48.851l-2.446,4.377L85.726,393.876z"/>
	<path style="fill:#D9A361;" d="M495.379,217.397c-0.144,2.556-0.752,4.324-1.714,4.943c-0.498,0.321-5.33,2.865-21.741-4.766
		c-0.022-0.011-0.044-0.022-0.066-0.033c-0.011-0.011-0.022-0.011-0.033-0.022c-0.022-0.011-0.044-0.011-0.066-0.022
		c-0.221-0.1-0.453-0.199-0.686-0.276c-0.066-0.032-0.144-0.044-0.21-0.066c-0.188-0.067-0.376-0.122-0.564-0.166
		c-0.111-0.032-0.221-0.044-0.332-0.065c-0.144-0.033-0.299-0.067-0.453-0.088c-0.144-0.022-0.299-0.033-0.442-0.044
		c-0.122-0.011-0.232-0.033-0.343-0.033c-0.199-0.011-0.387-0.011-0.586,0c-0.077,0-0.144,0-0.221,0
		c-0.254,0.011-0.509,0.033-0.763,0.077c-0.011,0-0.033,0-0.044,0c-0.022,0-0.033,0-0.044,0.011c-0.022,0-0.033,0-0.055,0
		c-16.012,2.3-36.946-7.498-37.156-7.585c-2.057-0.985-4.423-1.074-6.547-0.254c-2.123,0.829-3.826,2.488-4.689,4.589
		c-6.878,16.763-41.358,61.273-54.064,77.01c-0.73,0.896-1.261,1.924-1.559,3.041c-9.952,36.714-43.824,38.074-45.217,38.107
		c-4.523,0.077-8.15,3.771-8.15,8.294c0,9.079-3.638,22.47-7.708,34.513l-11.091-44.379v-16.676c0-4.578-3.716-8.294-8.294-8.294
		s-8.294,3.716-8.294,8.294v9.532c-27.115,7.254-79.233,3.306-103.108,0.929c5.596-9.289,9.112-18.313,9.112-27.049
		c0-4.578-3.716-8.294-8.294-8.294s-8.294,3.716-8.294,8.294c0,14.232-18.047,34.944-35.497,54.982
		c-13.945,16.003-28.232,32.39-37.676,49.287l-2.355-7.077c2.842-5.041,7.84-14.951,10.815-26.971
		c5.894-23.864,1.039-44.432-14.022-59.494c-5.607-5.618-10.638-10.351-15.072-14.532c-13.646-12.849-21.155-19.927-25.722-32.865
		c-4.744-13.425-0.818-24.328,2.223-26.916c0.254-0.221,0.487-0.453,0.708-0.697c18.644-15.891,49.973-34.69,76.236-34.69
		c15.758,0,42.453,4.622,68.274,9.09c25.578,4.423,49.729,8.603,64.426,8.603c4.998,0,10.638-0.42,16.599-0.874
		c13.436-1.006,28.663-2.146,43.78,0.73c25.843,4.921,76.656-37.543,86.587-46.102c3.284-2.831,3.826-7.719,1.261-11.202
		c-9.234-12.517-10.771-21.984-10.362-27.867c9.698,6.215,10.782,15.426,10.892,16.732c0.288,4.534,4.18,7.995,8.725,7.752
		c4.567-0.254,8.073-4.158,7.829-8.736c-0.033-0.63-0.652-9.776-7.144-18.976c0.354,0.044,0.708,0.077,1.073,0.077h9.4v18.246
		c0,2.776,1.382,5.363,3.693,6.9c2.355,1.57,5.584,3.284,9.001,5.109c4.158,2.212,12.75,6.779,14.575,9.09
		c0.033,0.077,0.077,0.166,0.111,0.243h-0.288c-4.578,0-8.294,3.716-8.294,8.294c0,4.579,3.716,8.294,8.294,8.294h10.693
		c0.31,0,0.608-0.022,0.907-0.055c5.275,6.104,11.49,12.352,17.317,18.202C486.101,206.958,493.422,214.311,495.379,217.397z"/>
</g>
<path style="fill:#121212;" d="M469.967,216.921c0.111,0.022,0.221,0.033,0.332,0.065c0.188,0.044,0.376,0.1,0.564,0.166
	c0.066,0.022,0.144,0.033,0.21,0.066c0.232,0.077,0.464,0.177,0.686,0.276c0.022,0.012,0.044,0.012,0.066,0.022
	c0.011,0.011,0.022,0.011,0.033,0.022c0.022,0.012,0.044,0.023,0.066,0.033c16.411,7.63,21.243,5.087,21.741,4.766
	c0.962-0.619,1.57-2.387,1.714-4.943c-1.957-3.085-9.278-10.438-14.73-15.902c-5.828-5.85-12.043-12.099-17.317-18.202
	c-0.299,0.033-0.597,0.055-0.907,0.055h-10.693c-4.578,0-8.294-3.714-8.294-8.294c0-4.578,3.716-8.294,8.294-8.294h0.288
	c-0.033-0.076-0.077-0.165-0.111-0.243c-1.825-2.311-10.417-6.878-14.575-9.09c-3.417-1.825-6.646-3.539-9.001-5.109
	c-2.311-1.538-3.693-4.125-3.693-6.9v-18.246h-9.4c-0.365,0-0.719-0.033-1.073-0.077c6.491,9.201,7.11,18.346,7.144,18.976
	c0.243,4.579-3.262,8.482-7.829,8.736c-4.545,0.243-8.438-3.218-8.725-7.752c-0.111-1.306-1.194-10.518-10.892-16.732
	c-0.409,5.883,1.128,15.35,10.362,27.867c2.566,3.483,2.024,8.371-1.261,11.202c-9.93,8.559-60.743,51.024-86.587,46.102
	c-15.117-2.876-30.344-1.736-43.78-0.73c-5.96,0.453-11.6,0.874-16.599,0.874c-14.696,0-38.848-4.18-64.426-8.603
	c-25.821-4.468-52.516-9.09-68.274-9.09c-26.263,0-57.592,18.799-76.236,34.69c-0.221,0.243-0.453,0.476-0.708,0.697
	c-3.041,2.588-6.967,13.491-2.223,26.916c4.567,12.938,12.076,20.017,25.722,32.865c4.434,4.18,9.466,8.913,15.072,14.532
	c15.061,15.061,19.916,35.63,14.022,59.494c-2.975,12.02-7.973,21.929-10.815,26.971l2.355,7.077
	c9.444-16.897,23.731-33.286,37.676-49.287c17.45-20.038,35.497-40.75,35.497-54.982c0-4.578,3.716-8.294,8.294-8.294
	c4.578,0,8.294,3.716,8.294,8.294c0,8.736-3.517,17.76-9.112,27.049c23.875,2.378,75.993,6.325,103.108-0.929v-9.532
	c0-4.578,3.716-8.294,8.294-8.294c4.578,0,8.294,3.716,8.294,8.294v16.676l11.091,44.377c4.069-12.043,7.708-25.434,7.708-34.513
	c0-4.523,3.627-8.216,8.15-8.294c1.393-0.033,35.265-1.393,45.217-38.107c0.299-1.117,0.829-2.145,1.559-3.041
	c12.706-15.736,47.186-60.246,54.064-77.01c0.863-2.101,2.566-3.76,4.689-4.589c2.123-0.818,4.49-0.73,6.547,0.254
	c0.21,0.087,21.143,9.885,37.156,7.585c0.022,0,0.033,0,0.055,0c0.011-0.011,0.022-0.011,0.044-0.011c0.011,0,0.033,0,0.044,0
	c0.254-0.044,0.509-0.067,0.763-0.077c0.077,0,0.144,0,0.221,0c0.199-0.011,0.387-0.011,0.586,0c0.111,0,0.221,0.023,0.343,0.033
	c0.144,0.011,0.299,0.022,0.442,0.044C469.669,216.855,469.823,216.888,469.967,216.921z M512,216.191
	c0,11.689-5.12,17.406-9.422,20.137c-3.428,2.178-7.498,3.273-12.253,3.273c-6.458,0-14.199-2.035-23.311-6.06
	c-13.524,1.25-28.099-3.019-36.703-6.194c-12.872,23.422-45.317,64.271-51.786,72.343c-9.577,32.511-35.453,44.875-52.803,47.883
	c-2.543,21.044-14.155,49.045-17.196,56.121v46.058l25.478,45.472c1.438,2.577,1.415,5.717-0.077,8.249
	c-1.493,2.543-4.213,4.103-7.155,4.103H309.08c-3.572,0-6.735-2.289-7.874-5.673l-8.847-26.54c-0.276-0.84-0.42-1.725-0.42-2.621
	v-20.657c0-0.112,0-0.21,0-0.321v-48.778l-3.705-14.796l-6.635,16.355l-13.049,52.206l21.254,38.527
	c1.415,2.566,1.371,5.695-0.122,8.216c-1.493,2.532-4.213,4.081-7.144,4.081h-17.693c-3.572,0-6.735-2.289-7.874-5.673l-8.847-26.54
	c-0.498-1.494-0.553-3.107-0.177-4.633l17.45-69.778v-59.317c-10.97,1.547-23.554,2.134-36.194,2.134
	c-29.216,0-58.653-3.074-68.938-4.268c-5.938,7.608-12.706,15.371-19.595,23.29c-17.848,20.469-36.271,41.623-42.398,61.726
	l7.641,22.924l41.27,46.323c2.178,2.444,2.709,5.927,1.371,8.914c-1.338,2.974-4.291,4.899-7.564,4.899H123.3
	c-2.776,0-5.363-1.382-6.9-3.693l-17.693-26.54c-0.409-0.608-0.73-1.283-0.973-1.979l-26.54-79.62
	c-0.796-2.411-0.453-5.054,0.94-7.166c0.066-0.1,7.321-11.357,10.804-25.831c0.365-1.504,0.663-2.986,0.918-4.447
	c-5.098,5.651-10.892,11.368-16.864,17.24c-18.877,18.567-40.274,39.622-41.557,62.115v12.098l25.478,45.472
	c1.438,2.577,1.415,5.717-0.077,8.25c-1.493,2.543-4.213,4.103-7.155,4.103H25.987c-3.572,0-6.735-2.289-7.874-5.673l-8.847-26.54
	c-0.276-0.84-0.42-1.725-0.42-2.621v-20.657c0-0.112,0-0.21,0-0.321v-67.489c0-2.311,0.962-4.523,2.665-6.082
	c0.111-0.111,11.987-11.268,21.232-28.553c11.888-22.237,14.088-43.835,6.58-64.205c-1.836-2.333-3.517-4.733-5.043-7.287
	c-0.011,10.328-6.535,19.008-11.777,25.998c-2.3,3.052-5.772,7.674-5.916,9.388c0,4.588-3.716,8.282-8.294,8.282
	S0,318.082,0,313.503c0-7.011,4.49-12.994,9.234-19.319c3.97-5.276,8.46-11.258,8.46-16.068c0-3.738-0.929-7.111-1.913-10.693
	c-2.134-7.719-4.777-17.328,3.34-29.338c6.945-10.284,23.3-24.449,40.684-35.231c15.802-9.809,39.644-21.497,63.497-21.497
	c17.185,0,44.598,4.744,71.105,9.333c23.753,4.114,48.325,8.36,61.595,8.36c4.379,0,9.709-0.398,15.36-0.829
	c13.745-1.028,30.853-2.311,48.115,0.973c2.61,0.498,13.381,0.586,42.298-19.153c10.063-6.878,19.153-14.011,24.704-18.51
	c-6.524-10.661-9.621-21.099-9.212-31.14c0.387-9.499,3.859-15.106,4.556-16.134c2.046-3.064,5.872-4.391,9.389-3.285
	c4.578,1.46,8.46,3.341,11.755,5.463c-1.017-2.024-1.99-4.434-2.787-7.276c-13.668-1.261-43.68-7.42-69.325-36.205l-24.395-8.128
	c-4.346-1.45-6.69-6.15-5.253-10.494c1.46-4.346,6.148-6.69,10.494-5.253l15.128,5.043c-1.039-12.276-3.616-23.102-6.889-27.856
	c-2.599-3.771-1.637-8.935,2.134-11.534c3.771-2.6,8.935-1.638,11.534,2.134c7.111,10.351,9.941,29.835,10.273,45.748
	c11.103,12.242,22.99,19.561,33.451,23.908c-8.493-7.829-13.215-16.046-13.558-16.655c-1.028-1.836-1.327-3.991-0.829-6.026
	c4.423-18.159-0.863-39.854-6.447-45.063c-3.351-3.118-3.528-8.371-0.398-11.723c3.118-3.351,8.371-3.526,11.722-0.398
	c10.727,10.02,16.012,36.15,12.009,57.547c1.471,2.135,3.926,5.385,7.199,8.659c6.104-8.039,11.069-19.407,11.069-24.76
	c0-4.578,3.716-8.294,8.294-8.294s8.294,3.716,8.294,8.294c0,10.152-6.569,24.151-14.011,34.159
	c1.117,0.453,2.256,0.863,3.428,1.173c5.562-5.098,19.319-19.331,20.557-35.951c0.343-4.568,4.324-7.995,8.891-7.653
	c4.567,0.344,7.995,4.324,7.652,8.891c-1.747,23.334-19.772,41.502-26.396,47.44c0.509,8.017,2.577,12.374,3.959,14.42h23.012
	c5.186,0,9.4-4.213,9.4-9.4c0-4.578,3.716-8.294,8.294-8.294c4.578,0,8.294,3.716,8.294,8.294c0,14.332-11.655,25.987-25.987,25.987
	h-0.553v13.513c1.205,0.665,2.532,1.371,3.893,2.101c11.633,6.182,19.452,10.727,22.05,17.24
	c2.964,7.398,15.836,20.325,25.235,29.758C506.338,203.784,512,209.722,512,216.191z M82.13,333
	c-1.924-5.054-4.899-9.61-8.924-13.635c-4.755-4.744-9.112-8.891-13.038-12.595c0.52,16.82-3.859,34.137-13.06,51.178
	c-7.874,14.564-17.185,25.113-21.674,29.769v8.635c8.703-11.744,19.651-22.526,29.924-32.644
	C66.615,352.64,77.253,342.168,82.13,333z"/>
</svg>