<?xml version="1.0" ?>

<!-- Uploaded to: SVG Repo, www.svgrepo.com, Generator: SVG Repo Mixer Tools -->
<svg width="800px" height="800px" viewBox="-4.39 0 20.227749 20.227749" id="svg8" version="1.1" xmlns="http://www.w3.org/2000/svg" xmlns:cc="http://creativecommons.org/ns#" xmlns:dc="http://purl.org/dc/elements/1.1/" xmlns:inkscape="http://www.inkscape.org/namespaces/inkscape" xmlns:rdf="http://www.w3.org/1999/02/22-rdf-syntax-ns#" xmlns:sodipodi="http://sodipodi.sourceforge.net/DTD/sodipodi-0.dtd" xmlns:svg="http://www.w3.org/2000/svg">

<defs id="defs2">

<clipPath clipPathUnits="userSpaceOnUse" id="clipPath23">

<rect height="170.00711" id="rect25" style="opacity:1;fill:none;fill-opacity:1;stroke:#000000;stroke-width:1.5;stroke-linecap:round;stroke-linejoin:round;stroke-miterlimit:4;stroke-dasharray:none;stroke-dashoffset:0;stroke-opacity:0.97641512" transform="rotate(90)" width="263.84616" x="6.7847877" y="110.36194"/>

</clipPath>

</defs>

<g id="layer1" transform="translate(91.701308,-562.02231)">

<rect height="58.184261" id="rect8011" ry="1.1433572" style="opacity:1;fill:none;fill-opacity:1;stroke:none;stroke-width:1.10699999;stroke-linecap:round;stroke-linejoin:round;stroke-miterlimit:4;stroke-dasharray:none;stroke-dashoffset:0;stroke-opacity:1" width="150.11761" x="-377.22021" y="-198.90477"/>

</g>

<g id="g8681" transform="translate(91.701308,-562.02231)">

<rect height="58.184261" id="rect8677" ry="1.1433572" style="opacity:1;fill:none;fill-opacity:1;stroke:none;stroke-width:1.10699999;stroke-linecap:round;stroke-linejoin:round;stroke-miterlimit:4;stroke-dasharray:none;stroke-dashoffset:0;stroke-opacity:1" width="150.11761" x="-377.22021" y="-198.90477"/>

</g>

<g id="g9233" transform="translate(91.701308,-562.02231)">

<rect height="58.184261" id="rect9229" ry="1.1433572" style="opacity:1;fill:none;fill-opacity:1;stroke:none;stroke-width:1.10699999;stroke-linecap:round;stroke-linejoin:round;stroke-miterlimit:4;stroke-dasharray:none;stroke-dashoffset:0;stroke-opacity:1" width="150.11761" x="-377.22021" y="-198.90477"/>

<rect height="368.83194" id="rect9311" ry="1.1433572" style="opacity:1;fill:none;fill-opacity:1;stroke:none;stroke-width:1.10699999;stroke-linecap:round;stroke-linejoin:round;stroke-miterlimit:4;stroke-dasharray:none;stroke-dashoffset:0;stroke-opacity:1" width="313.2399" x="-594.38983" y="-161.63449"/>


<path d="m -87.787597,581.58063 h 4.700119" id="path977-8-5-8-4-7-9-1-2" style="opacity:1;fill:none;fill-opacity:1;stroke:#241f1c;stroke-width:0.51981038;stroke-linecap:round;stroke-linejoin:round;stroke-miterlimit:4;stroke-dasharray:none;stroke-dashoffset:0;stroke-opacity:1"/>

<path d="m -85.838688,581.40865 -0.03334,-14.12729 1.097279,-1.5e-4 0.0642,14.11534 z" id="path979-8-6-6-8-0-8-6-3-4" style="opacity:1;fill:#784421;fill-opacity:1;stroke:#241f1c;stroke-width:0.72090656;stroke-linecap:round;stroke-linejoin:round;stroke-miterlimit:4;stroke-dasharray:none;stroke-dashoffset:0;stroke-opacity:1"/>

<path d="m 393.15348,159.08893 c 2.33057,1.58479 3.29069,8.13676 3.81804,10.90534 0.52734,2.76859 2.04306,9.21473 0.45827,11.5453 -1.58479,2.33058 -8.13676,3.29069 -10.90534,3.81804 -2.76858,0.52735 -9.21472,2.04307 -11.5453,0.45827 -2.33057,-1.58479 -3.29069,-8.13676 -3.81804,-10.90534 -0.52735,-2.76858 -2.04306,-9.21472 -0.45827,-11.5453 1.58479,-2.33057 8.13676,-3.29068 10.90534,-3.81803 2.76858,-0.52735 9.21472,-2.04307 11.5453,-0.45828 z" id="path7154-0-2-6" style="opacity:1;fill:#2ca02c;fill-opacity:1;stroke:#241f1c;stroke-width:2.95041895;stroke-linecap:round;stroke-linejoin:round;stroke-miterlimit:4;stroke-dasharray:none;stroke-dashoffset:0;stroke-opacity:1" transform="matrix(0.25645774,0.04699386,-0.04699386,0.25645774,-175.64819,507.43115)"/>

<path d="m 393.15348,159.08893 c 2.33057,1.58479 3.29069,8.13676 3.81804,10.90534 0.52734,2.76859 2.04306,9.21473 0.45827,11.5453 -1.58479,2.33058 -8.13676,3.29069 -10.90534,3.81804 -2.76858,0.52735 -9.21472,2.04307 -11.5453,0.45827 -2.33057,-1.58479 -3.29069,-8.13676 -3.81804,-10.90534 -0.52735,-2.76858 -2.04306,-9.21472 -0.45827,-11.5453 1.58479,-2.33057 8.13676,-3.29068 10.90534,-3.81803 2.76858,-0.52735 9.21472,-2.04307 11.5453,-0.45828 z" id="path7154-0-5" style="opacity:1;fill:#37c837;fill-opacity:1;stroke:#241f1c;stroke-width:2.95041895;stroke-linecap:round;stroke-linejoin:round;stroke-miterlimit:4;stroke-dasharray:none;stroke-dashoffset:0;stroke-opacity:1" transform="matrix(0.25645774,0.04699386,-0.04699386,0.25645774,-174.46003,503.56521)"/>

<path d="m 393.15348,159.08893 c 2.33057,1.58479 3.29069,8.13676 3.81804,10.90534 0.52734,2.76859 2.04306,9.21473 0.45827,11.5453 -1.58479,2.33058 -8.13676,3.29069 -10.90534,3.81804 -2.76858,0.52735 -9.21472,2.04307 -11.5453,0.45827 -2.33057,-1.58479 -3.29069,-8.13676 -3.81804,-10.90534 -0.52735,-2.76858 -2.04306,-9.21472 -0.45827,-11.5453 1.58479,-2.33057 8.13676,-3.29068 10.90534,-3.81803 2.76858,-0.52735 9.21472,-2.04307 11.5453,-0.45828 z" id="path7154-0-2-2-0" style="opacity:1;fill:#5fd35f;fill-opacity:1;stroke:#241f1c;stroke-width:2.94944882;stroke-linecap:round;stroke-linejoin:round;stroke-miterlimit:4;stroke-dasharray:none;stroke-dashoffset:0;stroke-opacity:1" transform="matrix(0.25645774,0.04699386,-0.04699386,0.25645774,-178.2756,505.20558)"/>

</g>

</svg>