<?xml version="1.0" encoding="iso-8859-1"?>
<!-- Uploaded to: SVG Repo, www.svgrepo.com, Generator: SVG Repo Mixer Tools -->
<svg height="800px" width="800px" version="1.1" id="Layer_1" xmlns="http://www.w3.org/2000/svg" xmlns:xlink="http://www.w3.org/1999/xlink" 
	 viewBox="0 0 511.999 511.999" xml:space="preserve">
<path style="fill:#A6673A;" d="M343.766,226.15c-15.509,32.356-26.22,63.597-33.472,98.407c-6.918,33.026-9.595,64.489-8.703,98.184
	H175.626c8.145-50.096,21.198-94.837,41.169-140.136c6.918-15.732,14.281-30.683,22.315-45.076
	c6.137-11.046,12.496-21.757,19.414-32.356h79.663C344.881,209.748,347.448,218.674,343.766,226.15z"/>
<path style="fill:#99522E;" d="M301.591,422.742c-0.893-33.695,1.785-65.159,8.703-98.184c7.252-34.812,17.963-66.051,33.472-98.407
	c3.682-7.475,1.116-16.401-5.579-20.976h-79.663c-6.918,10.599-13.276,21.31-19.414,32.356v185.211H301.591z"/>
<path style="fill:#FFC033;" d="M302.707,414.931c-20.531-2.231-41.951-3.347-63.261-3.347c-108.115,0-217.568,28.786-217.568,83.68
	c0,9.261,7.474,16.736,16.736,16.736h401.663c9.258,0,16.736-7.475,16.736-16.736C457.013,451.192,386.498,423.968,302.707,414.931z
	"/>
<path style="fill:#F9A926;" d="M302.707,414.931c-20.531-2.231-41.951-3.347-63.261-3.347c-0.112,0-0.223,0.002-0.335,0.002v100.414
	h201.166c9.258,0,16.736-7.475,16.736-16.736C457.012,451.192,386.498,423.968,302.707,414.931z"/>
<path style="fill:#88CC2A;" d="M480.666,180.182c-8.034-18.856-20.418-35.369-36.261-48.423c12.608-3.905,23.765-7.922,29.009-9.818
	c7.922-2.901,12.496-11.157,10.599-19.414c-5.913-26.666-25.997-47.753-53.554-56.344c-22.204-6.918-45.968-5.021-66.276,4.463
	c-3.682-9.595-9.148-18.41-16.29-25.997c-13.053-13.947-30.012-22.204-47.419-24.1c-14.281-1.785-28.899,0.781-42.398,7.81
	c-6.805,3.57-10.264,11.38-8.48,18.856c2.455,10.265,5.356,21.199,8.814,31.687c-54.781-9.484-113.469,11.604-141.25,54.894
	c-2.678,4.24-3.347,9.484-1.787,14.281c1.563,4.798,5.245,8.591,9.931,10.376c26.665,10.042,56.121,15.843,87.918,17.182
	c-25.327,29.567-37.599,67.613-31.128,102.982c0.893,4.686,3.682,8.814,7.811,11.38c4.127,2.455,9.147,3.012,13.612,1.562
	c32.02-10.042,69.956-35.703,96.956-59.468c2.231-2.008,4.463-3.905,6.584-5.913c9.147,32.133,27,73.304,47.864,94.391
	c3.123,3.236,7.364,5.021,11.826,5.021c0.112,0,0.112,0,0.112,0c4.463,0,8.814-1.897,11.939-5.021
	c18.075-18.633,29.121-40.389,32.578-64.266c15.956,12.942,32.468,24.658,47.865,33.695c4.24,2.566,9.262,3.012,13.835,1.45
	c4.574-1.562,8.256-5.021,10.153-9.484C493.274,237.419,492.269,207.628,480.666,180.182z"/>
<path style="fill:#7FB335;" d="M444.405,131.758c12.608-3.905,23.765-7.922,29.009-9.818c7.922-2.901,12.496-11.157,10.599-19.414
	c-5.913-26.666-25.997-47.753-53.554-56.344c-22.204-6.918-45.968-5.021-66.276,4.463c-3.682-9.595-9.148-18.41-16.29-25.997
	c-13.053-13.947-30.012-22.204-47.419-24.1c-14.281-1.785-28.899,0.781-42.398,7.81c-6.805,3.57-10.264,11.38-8.48,18.856
	c2.455,10.265,5.356,21.199,8.814,31.687c-6.399-1.108-12.852-1.76-19.302-2.045v198.823c21.99-12.206,43.951-28.26,61.365-43.588
	c2.231-2.008,4.463-3.905,6.584-5.913c9.147,32.133,27,73.304,47.864,94.391c3.123,3.236,7.364,5.021,11.826,5.021
	c0.112,0,0.112,0,0.112,0c4.463,0,8.814-1.897,11.939-5.021c18.075-18.633,29.121-40.389,32.578-64.266
	c15.956,12.942,32.468,24.658,47.865,33.695c4.24,2.566,9.262,3.012,13.835,1.45c4.574-1.562,8.256-5.021,10.153-9.484
	c10.042-24.546,9.036-54.336-2.566-81.783C472.633,161.326,460.249,144.812,444.405,131.758z"/>
</svg>