<?xml version="1.0" encoding="iso-8859-1"?>
<!-- Uploaded to: SVG Repo, www.svgrepo.com, Generator: SVG Repo Mixer Tools -->
<svg height="800px" width="800px" version="1.1" id="Layer_1" xmlns="http://www.w3.org/2000/svg" xmlns:xlink="http://www.w3.org/1999/xlink" 
	 viewBox="0 0 512.001 512.001" xml:space="preserve">
<path style="fill:#E0E0E0;" d="M484.885,116.257l-102.463-7.643c-29.48-2.203-56.998-14.643-79.26-34.105
	c-11.808-10.316-27.46-16.352-44.524-15.675c-32.716,1.308-58.8,26.623-61.003,59.293c-0.046,0.792-0.092,1.595-0.115,2.387
	c-0.482,15.606,5.462,30.731,15.836,42.401l76.208,85.698c-99.158-46.739-168.572,5.68-168.572,5.68
	c-22.852,16.42-43.536,24.2-58.44,27.884c-14.665,3.624-23.734,3.283-23.734,3.283l0,0l0,0c0,0,0,0.011,0.011,0.023
	c0.78,1.962,59.339,145.438,292.437,103.989c5.91-1.044,11.865-1.767,17.833-2.364c35-3.557,62.311-33.118,62.311-69.07
	c0-27.403-15.87-51.1-38.936-62.368c-1.18-0.467-2.348-0.955-3.506-1.464c1.158,0.508,2.326,0.997,3.506,1.464
	c11.613,4.602,24.27,7.126,37.524,7.126c55.46,0,102.004-45.672,102.004-102.004v-13.965v-1.354
	C512.001,130.142,500.182,117.404,484.885,116.257z"/>
<path style="fill:#E46A53;" d="M512.001,160.793c0,56.332-46.544,102.004-102.004,102.004c-13.254,0-25.911-2.525-37.524-7.126
	c-37.765-14.941-64.48-51.788-64.48-94.878H512.001z"/>
<path style="fill:#CA463D;" d="M500.091,160.793c-4.786,51.971-49.198,92.698-101.569,92.698c-13.254,0-25.911-2.525-37.524-7.126
	c-7.394-2.925-14.356-6.7-20.785-11.187c9.292,8.72,20.209,15.726,32.261,20.494c11.613,4.602,24.27,7.126,37.524,7.126
	c55.46,0,102.004-45.672,102.004-102.004H500.091z"/>
<path style="fill:#495577;" d="M308.349,310.201c-8.079,0.425-16.111-1.205-23.547-4.372c-19.164-8.182-75.703-25.751-181.861-9.146
	c-16.364,2.559-33.152,1.561-48.965-3.374c-6.61-2.066-12.405-4.648-15.147-7.826c-0.011-0.011-0.011-0.023-0.011-0.023
	s36.836,1.411,82.175-31.167c0,0,69.414-52.419,168.572-5.68l0.011,0.011l34.001,38.247
	C323.576,286.872,338.781,308.595,308.349,310.201z"/>
<path style="fill:#2A324E;" d="M310.116,297.154c-8.079,0.425-16.111-1.205-23.547-4.372c-19.164-8.182-75.703-25.751-181.861-9.146
	c-13.994,2.188-28.298,1.765-42.038-1.487c-14.737,3.656-23.854,3.311-23.854,3.311s0,0.011,0.011,0.023
	c2.743,3.179,8.538,5.761,15.147,7.826c15.813,4.934,32.601,5.933,48.965,3.374c106.158-16.605,162.697,0.964,181.861,9.146
	c7.436,3.167,15.469,4.797,23.547,4.372c20.82-1.099,20.279-11.612,17.861-18.144C323.495,294.71,318.566,296.707,310.116,297.154z"
	/>
<path style="fill:#61ACD2;" d="M500.325,430.268c-41.696,0-41.696,22.951-83.392,22.951s-41.696-22.951-83.392-22.951
	c-41.694,0-41.694,22.951-83.388,22.951s-41.693-22.951-83.385-22.951c-41.691,0-41.691,22.951-83.382,22.951
	c-41.692,0-41.692-22.951-83.385-22.951v-61.967c41.692,0,41.692,22.951,83.385,22.951c41.691,0,41.691-22.951,83.382-22.951
	c41.692,0,41.692,22.951,83.385,22.951c41.694,0,41.694-22.951,83.388-22.951c41.696,0,41.696,22.951,83.392,22.951
	s41.696-22.951,83.392-22.951V430.268z"/>
<circle style="fill:#2A324E;" cx="273.114" cy="113.549" r="7.459"/>
<path style="fill:#F4A026;" d="M512.001,160.793H307.993c0,0.321,0,0.631,0.012,0.952h-0.264v-14.918h204.261V160.793z"/>
</svg>