<?xml version="1.0" encoding="iso-8859-1"?>
<!-- Uploaded to: SVG Repo, www.svgrepo.com, Generator: SVG Repo Mixer Tools -->
<svg height="800px" width="800px" version="1.1" id="Layer_1" xmlns="http://www.w3.org/2000/svg" xmlns:xlink="http://www.w3.org/1999/xlink" 
	 viewBox="0 0 512 512" xml:space="preserve">
<g>
	<path style="fill:#7C8789;" d="M333.541,297.602l0.633-1.48c2.005-4.691,4.388-11.476,4.356-17.166l-0.006-1.069l0.835-0.669
		c5.747-4.605,11.258-9.634,16.377-14.948l0.524-0.545l0.749-0.109c1.046-0.153,2.376-0.359,3.893-0.621l3.341-0.576l-0.818,3.29
		c-1.597,6.419-4.317,16.374-7.099,25.98c-0.487,1.678-0.228,3.489,0.708,4.971l25.242,39.661l-3.319,2.854L333.541,297.602z"/>
	<path style="fill:#7C8789;" d="M355.161,295.842l25.246,39.667l-44.2-38.517c2.178-5.098,4.567-12.098,4.534-18.047
		c5.452-4.368,11.025-9.366,16.587-15.139c1.062-0.155,2.411-0.365,3.948-0.63c-1.681,6.757-4.49,16.963-7.077,25.899
		C353.537,291.364,353.89,293.83,355.161,295.842z"/>
	<path style="fill:#7C8789;" d="M28.3,342.232l4.61-26.693l1.059-0.485c18.21-8.348,43.043-23.772,57.942-49.845l1.81-3.168
		l1.972,3.07c3.237,5.041,7.011,9.969,11.218,14.645l1.239,1.376l-1.137,1.461c-5.158,6.628-21.019,23.655-56.829,38.569
		c-1.669,0.693-1.669,0.693-7.752,8.936c-2.821,3.805-6.467,8.767-10.169,13.817L28.3,342.232z"/>
	<path style="fill:#7C8789;" d="M93.832,266.305c3.273,5.098,7.077,10.086,11.434,14.929c-5.043,6.48-20.568,23.156-55.933,37.886
		c-2.234,0.929-2.234,0.929-8.681,9.665c-2.82,3.804-6.469,8.769-10.174,13.823l4.412-25.545
		C53.656,308.461,78.703,292.779,93.832,266.305z"/>
</g>
<g>
	<path style="fill:#9EA8AA;" d="M130.593,342.627l16.046-40.131c1.118-2.798-0.013-6.042-2.63-7.545
		c-2.072-1.219-50.011-29.937-50.011-74.34c0-3.354-2.728-6.082-6.082-6.082c-3.354,0-6.082,2.728-6.082,6.082
		c0,8.707,1.592,17.509,4.733,26.162l0.286,0.788l-0.309,0.78c-13.565,34.249-47.31,51.786-66.217,59.191l-4.765,1.867l1.905-4.748
		c2.997-7.471,7.841-14.368,12.971-21.669c6.591-9.374,14.061-19.997,18.979-33.785c22.101-62.132,87.164-75.581,102.084-75.581
		c14.041,0,29.573,1.059,47.559,2.285l0.133,0.009c22.038,1.517,47.014,3.236,75.057,3.236c20.826,0,45.356-7.176,71.325-14.773
		c23.083-6.744,46.954-13.718,70-16.276l2.321-0.258l0.13,2.331c0.085,1.504,0.712,2.914,1.766,3.967
		c1.146,1.153,2.669,1.786,4.297,1.786c1.628,0,3.152-0.633,4.292-1.779l8.852-8.852l7.58-7.556v5.006
		c0.064,0.215,0.145,0.439,0.242,0.668l0.069,0.142c0.238,0.524,0.562,1.016,0.963,1.466l0.155,0.184l24.846,24.857v15.17
		c0,1.605,0.648,3.168,1.779,4.291l21.298,21.299l-15.117,10.077c-0.741,0.499-1.61,0.765-2.507,0.765
		c-0.715,0-1.434-0.176-2.077-0.506c-17.045-8.933-29.412-14.731-34.835-16.333c-0.554-0.161-1.132-0.244-1.711-0.244
		c-2.685,0-5.09,1.796-5.849,4.367c-0.938,3.219,0.91,6.613,4.121,7.559c0.53,0.148,1.178,0.367,2.136,0.723l4.284,1.592
		l-3.907,2.371c-36.657,22.253-84.124,28.523-86.127,28.778c-1.427,0.171-2.736,0.837-3.703,1.878
		c-26.902,28.785-54.504,37.996-64.895,41.464c-1.558,0.511-2.687,0.892-3.624,1.25c-1.805,0.692-3.183,2.226-3.684,4.1
		c-3.829,14.266-14.392,26.735-23.166,36.004l-5.803,6.125l13.862-55.419l0.294-0.373c3.947-5.003,16.902-23.137,17.906-46.421
		c0.145-3.352-2.459-6.197-5.806-6.343l-0.232-0.004c-3.284,0-5.967,2.552-6.11,5.809c-0.775,17.905-10.24,32.574-14.273,38.051
		l-0.561,0.761l-0.938,0.121c-9.887,1.275-21.592,1.978-32.957,1.978c-9.715,0-18.84-0.5-26.386-1.446l-2.237-0.28l0.323-2.232
		c0.477-3.293,0.718-6.706,0.718-10.144c0-21.538-18.085-46.75-18.854-47.813c-1.14-1.565-2.985-2.502-4.931-2.502
		c-1.288,0-2.522,0.401-3.569,1.16c-2.708,1.972-3.312,5.786-1.344,8.501c4.597,6.305,16.533,25.911,16.533,40.655
		c0,19.57-8.574,30.604-18.502,43.378c-7.932,10.212-16.923,21.787-20.086,38.423l-0.701,3.689L130.593,342.627z"/>
	<path style="fill:#9EA8AA;" d="M443.109,144.466c0.332,0.73,0.774,1.404,1.327,2.024c0.055,0.066,0.111,0.133,0.166,0.199
		c0.055,0.055,0.111,0.111,0.166,0.165l24.107,24.119v14.254c0,2.201,0.874,4.313,2.433,5.861l19.385,19.385l-12.872,8.581
		c-0.708,0.475-1.592,0.52-2.344,0.133c-12.153-6.37-28.143-14.398-35.221-16.488c-4.401-1.283-9.013,1.227-10.306,5.618
		c-1.283,4.401,1.227,9.013,5.618,10.306c0.553,0.155,1.216,0.387,1.991,0.675c-36.526,22.172-84.74,28.409-85.26,28.475
		c-1.935,0.232-3.716,1.139-5.043,2.566c-26.54,28.398-53.766,37.466-64.006,40.883c-1.515,0.498-2.698,0.896-3.682,1.272
		c-2.477,0.951-4.346,3.03-5.032,5.596c-3.583,13.347-13.414,25.312-22.636,35.055l11.7-46.777
		c4.335-5.496,17.35-23.864,18.379-47.695c0.199-4.578-3.351-8.449-7.918-8.648c-4.578-0.177-8.449,3.351-8.648,7.918
		c-0.752,17.35-9.919,31.505-13.845,36.835c-18.777,2.422-42.287,2.599-58.786,0.531c0.476-3.284,0.741-6.757,0.741-10.461
		c0-22.349-18.49-48.026-19.275-49.11c-2.698-3.705-7.885-4.523-11.589-1.836c-3.705,2.698-4.523,7.885-1.836,11.589
		c4.49,6.159,16.112,25.235,16.112,39.357c0,18.81-8.36,29.57-18.036,42.022c-8.194,10.55-17.251,22.216-20.513,39.368l-5.142-4.28
		l15.448-38.638c1.537-3.848,0-8.227-3.583-10.284c-0.487-0.288-48.9-28.542-48.9-72.421c0-4.578-3.716-8.294-8.294-8.294
		c-4.578,0-8.294,3.716-8.294,8.294c0,9.057,1.659,18.08,4.866,26.916c-13.259,33.475-46.39,50.669-64.968,57.946
		c2.897-7.221,7.586-13.9,12.728-21.221c6.679-9.499,14.243-20.27,19.253-34.314c21.674-60.931,85.392-74.113,100-74.113
		c14,0,29.537,1.062,47.54,2.289c22.183,1.526,47.319,3.24,75.208,3.24c21.143,0,45.826-7.221,71.945-14.862
		c23.09-6.746,46.81-13.668,69.623-16.2c0.111,1.968,0.907,3.904,2.411,5.408c1.615,1.626,3.738,2.433,5.861,2.433
		c2.123,0,4.246-0.807,5.861-2.433l8.847-8.847l3.804-3.793c0,0.033,0.022,0.066,0.033,0.1c0.1,0.376,0.232,0.752,0.387,1.117
		C443.043,144.343,443.075,144.409,443.109,144.466z"/>
</g>
<path style="fill:#121212;" d="M509.569,205.906c1.758,1.758,2.643,4.202,2.389,6.679c-0.243,2.477-1.581,4.7-3.649,6.082
	l-21.287,14.188c-3.163,2.112-6.812,3.175-10.483,3.175c-2.997,0-6.005-0.709-8.747-2.145c-4.512-2.366-8.703-4.512-12.507-6.403
	c-24.373,17.439-55.081,27.093-76.203,32.069c-0.232,1.36-0.553,2.787-0.907,4.313c-0.708,3.074-1.78,7.254-3.163,12.407
	c-1.415,5.242-2.897,10.472-3.848,13.812l57.481,90.324h13.137c4.578,0,8.294,3.716,8.294,8.294s-3.716,8.294-8.294,8.294h-17.693
	c-2.831,0-5.474-1.449-7-3.837l-5.242-8.249l-91.253-79.53c-2.897-2.511-3.682-6.69-1.902-10.086
	c0.332-0.651,0.664-1.327,0.984-2.013c-13.215,7.564-24.24,11.357-30.444,13.425c-6.591,19.12-21.553,34.203-32.688,45.439
	c-3.904,3.937-8.703,8.779-9.941,10.937v17.328h9.4c4.578,0,8.294,3.716,8.294,8.294s-3.716,8.294-8.294,8.294h-17.693
	c-4.578,0-8.294-3.716-8.294-8.294v-35.387c0-0.675,0.088-1.349,0.243-2.013l14.785-59.129c-8.46,0.763-17.373,1.161-26.064,1.161
	c-11.125,0-21.851-0.629-30.687-1.902c-4.269,10.129-10.494,18.158-16.289,25.622c-9.654,12.418-17.992,23.189-18.268,41.977
	l25.655,21.376h14.685c4.578,0,8.294,3.716,8.294,8.294s-3.716,8.294-8.294,8.294h-17.693c-1.935,0-3.815-0.686-5.308-1.924
	l-53.08-44.233c-2.765-2.3-3.727-6.115-2.389-9.455l15.15-37.864c-3.561-2.444-8.371-6.005-13.613-10.583
	c-7.354,8.957-24.638,25.788-59.383,40.639c-4.346,5.782-19.474,26.418-29.791,40.528l3.152,6.303h12.562
	c4.578,0,8.294,3.716,8.294,8.294c0,4.578-3.716,8.294-8.294,8.294H25.988c-3.141,0-6.016-1.78-7.42-4.589l-8.847-17.693
	c-0.785-1.581-1.051-3.373-0.752-5.12l7.874-45.505c-3.738,1.195-6.126,1.793-6.613,1.902c-0.641,0.155-1.294,0.232-1.935,0.232
	c-1.924,0-3.804-0.664-5.308-1.924c-2.013-1.681-3.118-4.213-2.975-6.823c0.962-17.572,9.964-30.377,18.666-42.763
	c6.37-9.057,12.949-18.423,17.185-30.344c10.516-29.548,31.372-53.334,60.301-68.805c24.151-12.916,46.755-16.322,55.336-16.322
	c14.564,0,31.129,1.128,48.668,2.333c21.918,1.493,46.755,3.196,74.08,3.196c18.766,0,42.342-6.889,67.29-14.199
	c28.895-8.449,58.731-17.151,87.903-17.804l15.327-15.327c2.366-2.378,5.938-3.085,9.035-1.802c3.096,1.283,5.12,4.313,5.12,7.663
	v14.254l24.107,24.118c1.559,1.548,2.433,3.66,2.433,5.861v14.254L509.569,205.906z M477.82,219.053l12.872-8.581l-19.385-19.385
	c-1.559-1.547-2.433-3.66-2.433-5.861v-14.254l-24.107-24.119c-0.055-0.055-0.111-0.111-0.166-0.165
	c-0.055-0.067-0.111-0.134-0.166-0.199c-0.553-0.619-0.995-1.294-1.327-2.024c-0.033-0.055-0.066-0.122-0.088-0.188
	c-0.155-0.365-0.288-0.741-0.387-1.117c-0.011-0.033-0.033-0.066-0.033-0.1l-3.804,3.793l-8.847,8.847
	c-1.615,1.626-3.738,2.433-5.861,2.433c-2.123,0-4.246-0.807-5.861-2.433c-1.504-1.503-2.3-3.438-2.411-5.408
	c-22.813,2.532-46.533,9.455-69.623,16.2c-26.12,7.641-50.802,14.862-71.945,14.862c-27.889,0-53.025-1.714-75.208-3.24
	c-18.003-1.227-33.54-2.289-47.54-2.289c-14.608,0-78.326,13.182-100,74.113c-5.009,14.044-12.573,24.815-19.253,34.314
	c-5.142,7.321-9.831,14-12.728,21.221c18.578-7.276,51.709-24.472,64.968-57.946c-3.207-8.836-4.866-17.858-4.866-26.916
	c0-4.578,3.716-8.294,8.294-8.294s8.294,3.716,8.294,8.294c0,43.879,48.413,72.133,48.9,72.421c3.583,2.057,5.12,6.436,3.583,10.284
	l-15.448,38.638l5.142,4.28c3.262-17.151,12.319-28.818,20.513-39.368c9.676-12.452,18.036-23.211,18.036-42.022
	c0-14.121-11.622-33.197-16.112-39.357c-2.687-3.705-1.869-8.891,1.836-11.589c3.705-2.687,8.891-1.869,11.589,1.836
	c0.785,1.084,19.275,26.761,19.275,49.11c0,3.705-0.265,7.177-0.741,10.461c16.499,2.068,40.009,1.891,58.786-0.531
	c3.926-5.33,13.093-19.485,13.845-36.835c0.199-4.567,4.069-8.095,8.648-7.918c4.567,0.2,8.117,4.071,7.918,8.648
	c-1.028,23.831-14.044,42.199-18.379,47.695l-11.7,46.777c9.223-9.742,19.053-21.707,22.636-35.055
	c0.686-2.566,2.554-4.645,5.032-5.595c0.984-0.376,2.167-0.774,3.682-1.272c10.24-3.417,37.466-12.485,64.006-40.883
	c1.327-1.427,3.107-2.333,5.043-2.566c0.52-0.066,48.734-6.303,85.26-28.475c-0.774-0.288-1.438-0.52-1.991-0.675
	c-4.39-1.294-6.9-5.905-5.618-10.306c1.294-4.39,5.905-6.9,10.306-5.618c7.077,2.091,23.068,10.118,35.221,16.488
	C476.228,219.574,477.113,219.53,477.82,219.053z M380.407,335.509l-25.246-39.667c-1.272-2.013-1.626-4.479-0.962-6.768
	c2.588-8.935,5.396-19.142,7.077-25.899c-1.537,0.265-2.886,0.475-3.948,0.63c-5.562,5.772-11.136,10.771-16.587,15.139
	c0.033,5.949-2.355,12.949-4.534,18.047L380.407,335.509z M105.265,281.234c-4.357-4.842-8.161-9.831-11.434-14.929
	c-15.128,26.474-40.175,42.155-58.941,50.758l-4.412,25.545c3.705-5.054,7.354-10.019,10.174-13.823
	c6.447-8.736,6.447-8.736,8.681-9.665C84.697,304.39,100.223,287.715,105.265,281.234z"/>
</svg>