<?xml version="1.0" encoding="utf-8"?><!-- Uploaded to: SVG Repo, www.svgrepo.com, Generator: SVG Repo Mixer Tools -->
<svg width="800px" height="800px" viewBox="0 0 400 400" fill="#ffffff" xmlns="http://www.w3.org/2000/svg">
<path d="M90.4721 330.996C81.9626 282.694 65.6528 223.497 65.6528 174.107C65.6528 167.132 86.2661 150.23 90.4721 143.996C92.7545 140.617 101.614 125.472 105.802 125.472C129.753 125.472 207.923 144.239 221.136 131.645C248.23 105.822 277.489 64.998 290.181 66.3322C294.21 66.7557 303.028 80.8839 312.378 91.5036C322.959 103.522 341.448 115.793 346.686 132.419C348.1 136.9 338.245 154.143 336.35 158.26C331.804 168.138 298.141 132.017 293.053 144.574C269.958 201.571 245.224 273.547 245.224 336.225" stroke="#000000" stroke-opacity="0.9" stroke-width="16" stroke-linecap="round" stroke-linejoin="round"/>
<path d="M252 237C222 231.333 156.6 220.8 135 224" stroke="#000000" stroke-opacity="0.9" stroke-width="16" stroke-linecap="round" stroke-linejoin="round"/>
<path opacity="0.503384" d="M82.5232 166.116C122 209 123 209 95.2122 257.497" stroke="#000000" stroke-opacity="0.9" stroke-width="16" stroke-linecap="round" stroke-linejoin="round"/>
<path opacity="0.503384" d="M105.017 126.752C121.252 145.564 128.183 170.83 133.134 195.64" stroke="#000000" stroke-opacity="0.9" stroke-width="16" stroke-linecap="round" stroke-linejoin="round"/>
<path opacity="0.503384" d="M147.192 132.375C159.374 159.124 159.631 188.656 151.345 216.727" stroke="#000000" stroke-opacity="0.9" stroke-width="16" stroke-linecap="round" stroke-linejoin="round"/>
<path opacity="0.503384" d="M188.623 157C183.841 178.281 184.291 200.752 183 223.075" stroke="#000000" stroke-opacity="0.9" stroke-width="16" stroke-linecap="round" stroke-linejoin="round"/>
<path d="M65.6527 168.928C54.8919 190.209 55.9051 212.68 53 235.004" stroke="#000000" stroke-opacity="0.9" stroke-width="16" stroke-linecap="round" stroke-linejoin="round"/>
<path opacity="0.503384" d="M217.144 137.999C213.222 157.372 211.982 177.808 216.448 197.045" stroke="#000000" stroke-opacity="0.9" stroke-width="16" stroke-linecap="round" stroke-linejoin="round"/>
<path opacity="0.503384" d="M238.573 187.204C244.07 201.365 253.433 216.998 265.285 225.162" stroke="#000000" stroke-opacity="0.9" stroke-width="16" stroke-linecap="round" stroke-linejoin="round"/>
<path opacity="0.503384" d="M237.111 119C236.24 132.329 240.573 145.22 246.841 156.958" stroke="#000000" stroke-opacity="0.9" stroke-width="16" stroke-linecap="round" stroke-linejoin="round"/>
<path opacity="0.503384" d="M262 127C268.202 143.478 270.069 162.052 277 178" stroke="#000000" stroke-opacity="0.9" stroke-width="16" stroke-linecap="round" stroke-linejoin="round"/>
<path opacity="0.503384" d="M285 67C249.437 86.169 269.762 104.203 281.643 123" stroke="#000000" stroke-opacity="0.9" stroke-width="16" stroke-linecap="round" stroke-linejoin="round"/>
<path d="M304 76.5C304 74.0257 309 63.4743 309 61" stroke="#000000" stroke-opacity="0.9" stroke-width="16" stroke-linecap="round" stroke-linejoin="round"/>
<path d="M271 70C269.884 65.2333 264.802 64.4909 262 62" stroke="#000000" stroke-opacity="0.9" stroke-width="16" stroke-linecap="round" stroke-linejoin="round"/>
<path opacity="0.503384" d="M333.87 114C327.719 117.725 321.657 126.794 317 132.276" stroke="#000000" stroke-opacity="0.9" stroke-width="16" stroke-linecap="round" stroke-linejoin="round"/>
<path opacity="0.503384" d="M317.301 105.664C313.783 100.778 311.453 95.4708 308.866 90.1997" stroke="#000000" stroke-opacity="0.9" stroke-width="16" stroke-linecap="round" stroke-linejoin="round"/>
</svg>