<?xml version="1.0" encoding="iso-8859-1"?>
<!-- Uploaded to: SVG Repo, www.svgrepo.com, Generator: SVG Repo Mixer Tools -->
<!DOCTYPE svg PUBLIC "-//W3C//DTD SVG 1.1//EN" "http://www.w3.org/Graphics/SVG/1.1/DTD/svg11.dtd">
<svg height="800px" width="800px" version="1.1" id="Capa_1" xmlns="http://www.w3.org/2000/svg" xmlns:xlink="http://www.w3.org/1999/xlink" 
	 viewBox="0 0 377.343 377.343" xml:space="preserve">
<g>
	<path style="fill:transparent;" d="M340.253,188.667c0,24.19-5.05,47.21-14.15,68.04c-26.25,60.1-86.21,102.09-155.97,102.09
		c-25.11,0-48.96-5.44-70.41-15.21c-58.83-26.78-99.72-86.07-99.72-154.92c0-37.99,12.45-73.07,33.5-101.39
		c31.01-41.71,80.66-68.73,136.63-68.73c93.21,0,168.92,74.96,170.11,167.9C340.253,187.187,340.253,187.927,340.253,188.667z"/>
	<path style="fill:#F2F2F2;" d="M377.34,222.317l-9.55,15.69l-4.95,8.13c-4.01,6.59-11.18,10.61-18.89,10.6l-17.85-0.03
		l-149.81-0.28l-76.57,87.16c-12.01-5.47-23.28-12.29-33.6-20.27C25.9,292.196,0,243.457,0,188.667c0-37.99,12.45-73.07,33.5-101.39
		l90-10.51l53.61-6.26c15.19-1.77,30.37,0.75,43.93,7.03c8.22,3.81,15.84,9,22.51,15.44l38,36.73l58.69,56.74l23.9,23.1
		L377.34,222.317z"/>
	<path style="fill:#666666;" d="M314.768,216.506L314.768,216.506c-4.187,10.05-14.77,15.866-25.499,14.014l-72.343-12.491
		c-23.589-4.073-36.067-30.243-24.381-51.135l0,0c5.664-10.126,5.892-22.412,0.609-32.741l-8.253-16.136l36.14-40.48
		c8.22,3.81,15.84,9,22.51,15.44l38,36.73v16.808c0,16.828,8.93,32.391,23.458,40.883l0,0
		C315.089,193.29,319.259,205.728,314.768,216.506z"/>
	<path style="fill:#4D4D4D;" d="M377.343,222.317l-9.55,15.69c-5.29-3.21-8.82-9.04-8.82-15.69c0-4.96,1.97-9.47,5.17-12.77
		L377.343,222.317z"/>
	<path style="fill:#EFDF9A;" d="M212.712,97.598c0.2,0.273,0.401,0.545,0.601,0.816c4.017,5.446,11.549,6.732,17.253,3.089
		c5.588-3.569,12.583-6.921,21.257-9.914c60.983-21.045,55.124-55.455,55.124-55.455c-26.815,33.429-59.31,29.617-88.898,42.138
		C210.446,81.489,207.824,90.945,212.712,97.598z"/>
	<circle style="fill:#4D4D4D;" cx="255.61" cy="150.687" r="10"/>
	<path style="fill:#666666;" d="M198.667,87.763c-11.211-11.304-31.358-27.545-55.674-29.033c0,0-1.262,13.373,0.844,27.969
		c2.444,16.947,16.419,29.87,33.512,30.876l7.555,0.444c6.374,0.375,12.461-2.69,15.955-8.034l0,0
		C205.438,102.982,204.559,93.704,198.667,87.763z"/>
	<path style="fill:#4D4D4D;" d="M195.978,107.107c0,0-15.358-25.341-45.306-33.019C150.672,74.088,145.296,117.09,195.978,107.107z"
		/>
	<path style="fill:#666666;" d="M139.878,246.813L139.878,246.813c-3.326,23.282-17.152,43.75-37.508,55.529l-36.25,20.975
		C25.9,292.196,0,243.457,0,188.667c0-37.99,12.45-73.07,33.5-101.39l90-10.51l-12.824,115.342
		c-1.241,11.162,4.608,21.915,14.654,26.938l0,0C135.649,224.206,141.509,235.391,139.878,246.813z"/>
</g>
</svg>