<?xml version="1.0" encoding="iso-8859-1"?>
<!-- Uploaded to: SVG Repo, www.svgrepo.com, Generator: SVG Repo Mixer Tools -->
<!DOCTYPE svg PUBLIC "-//W3C//DTD SVG 1.1//EN" "http://www.w3.org/Graphics/SVG/1.1/DTD/svg11.dtd">
<svg height="800px" width="800px" version="1.1" id="Capa_1" xmlns="http://www.w3.org/2000/svg" xmlns:xlink="http://www.w3.org/1999/xlink" 
	 viewBox="0 0 340.254 340.254" xml:space="preserve">
<g>
	<path style="fill:transparent;" d="M340.252,170.862c-0.39,90.3-71.05,163.86-159.95,169.09c-3.61,0.22-7.25,0.32-10.91,0.3
		c-80.59-0.35-147.84-56.68-165.09-131.98c-2.87-12.49-4.36-25.51-4.3-38.88c0.41-93.96,76.91-169.8,170.86-169.39
		C264.822,0.412,340.662,76.912,340.252,170.862z"/>
	<path style="fill:#C9721C;" d="M267.372,68.682l-84.61,154.86l-2.46,116.41c-3.61,0.22-7.25,0.32-10.91,0.3
		c-80.59-0.35-147.84-56.68-165.09-131.98c37.15-29.15,80.25-69.85,91.6-108.77c20.98-71.91,69.68-79.03,118.34-76.82
		C262.892,24.892,267.372,68.682,267.372,68.682z"/>
	<path style="fill:#C9721C;" d="M312.785,128.265l-0.119,27.42c-0.075,17.26-5.065,33.348-13.664,46.941
		c-15.789,25.012-43.721,41.571-75.48,41.433c-24.51-0.106-46.656-10.142-62.647-26.272c-16-16.13-25.834-38.362-25.728-62.872
		l0.015-3.54c0.196-45.18,33.905-81.794,79.077-82.108l10.471-0.115l31.142-0.345l11.521-0.13c-0.01,2.39,0.119,4.751,0.379,7.072
		c1.549,14.147,7.924,26.855,17.432,36.446c5.685,5.735,12.485,10.354,20.062,13.497
		C307.682,126.702,310.198,127.573,312.785,128.265z"/>
	<path style="fill:#EAA157;" d="M145.572,132.549c0.097-22.459-2.031-40.676-24.49-40.773s-40.745,18.031-40.843,40.49
		c-0.097,22.459,18.031,40.745,40.49,40.843S145.474,155.008,145.572,132.549z"/>
	<path style="fill:#AF6019;" d="M130.121,160.148c-11.765-0.051-21.282-12.504-21.216-27.759
		c0.066-15.255,9.691-27.625,21.456-27.574c5.37,0.023,6.165,2.316,6.868,4.339c1.837,5.292,2.047,14.781,2.01,23.366
		c-0.037,8.585-0.329,18.072-2.212,23.348C136.307,157.886,135.491,160.172,130.121,160.148z"/>
	<path style="fill:#EAA157;" d="M312.785,128.265l-0.119,27.42c-0.075,17.26-5.065,33.348-13.664,46.941
		c-2.291,0.31-4.622,0.47-7.002,0.46c-27.67-0.12-50.002-22.647-49.882-50.317c0.003-0.65,0.026-1.29,0.058-1.94
		c-0.55,0.018-1.09,0.035-1.63,0.033c-23.43-0.102-42.337-19.174-42.236-42.603c0.077-17.69,10.972-32.813,26.4-39.106
		c4.999-2.038,10.474-3.154,16.204-3.129c5.26,0.023,10.296,1.005,14.938,2.785c4.363,1.659,8.373,4.016,11.9,6.942
		c1.549,14.147,7.924,26.855,17.432,36.446c5.685,5.735,12.485,10.354,20.062,13.497
		C307.682,126.702,310.198,127.573,312.785,128.265z"/>
	<circle style="fill:#4D4D4D;" cx="240.728" cy="108.443" r="15.333"/>
	<path style="fill:transparent;" d="M293.584,181.695l21.333,0.093l0.069-16l-37.333-0.162v0
		C277.616,174.462,284.748,181.657,293.584,181.695z"/>
	<path style="fill:#4D4D4D;" d="M312.715,144.397h-4.803c-2.025,0-3.666-1.641-3.666-3.666v0c0-2.025,1.641-3.666,3.666-3.666h4.803
		V144.397z"/>
</g>
</svg>