<?xml version="1.0" encoding="iso-8859-1"?>
<!-- Uploaded to: SVG Repo, www.svgrepo.com, Generator: SVG Repo Mixer Tools -->
<!DOCTYPE svg PUBLIC "-//W3C//DTD SVG 1.1//EN" "http://www.w3.org/Graphics/SVG/1.1/DTD/svg11.dtd">
<svg height="800px" width="800px" version="1.1" id="Capa_1" xmlns="http://www.w3.org/2000/svg" xmlns:xlink="http://www.w3.org/1999/xlink" 
	 viewBox="0 0 391.113 391.113" xml:space="preserve">
<g>
	<path style="fill:transparent;" d="M340.31,195.551c0,93.98-76.18,170.16-170.16,170.16c-36.24,0-69.82-11.33-97.41-30.64
		C28.76,304.321,0,253.291,0,195.551c0-32.56,9.14-62.98,25-88.83c29.92-48.78,83.74-81.32,145.15-81.32
		C264.13,25.401,340.31,101.581,340.31,195.551z"/>
	<path style="fill:#666666;" d="M388.51,164.791c0,0,3.75-23.89-47.37-30.18c1.74-16.02-0.86-36.49-0.86-36.49l25.7,12.14
		C386.41,119.921,396.17,143.522,388.51,164.791z"/>
	<path style="fill:#4D4D4D;" d="M388.51,164.791c-4.2-3.19-8.62-5.97-13.17-8.39c-0.7-0.37-1.4-0.74-2.11-1.09
		c-10.77-5.42-22.21-7.97-33.49-7.97c-0.54,0-1.08,0.01-1.62,0.02c1.54-3.35,2.48-7.84,3.02-12.74v-0.01
		C392.26,140.901,388.51,164.791,388.51,164.791z"/>
	<path style="fill:#BAA28E;" d="M338.117,147.361c-27.48,0.59-43.45-5.54-66.63,42.74c-16.223,33.79-60.7,41.98-88.18,16.5
		l-27.29-25.31l27-61.5l21.39,28.2c5.33,7.03,16.2,5.99,20.09-1.93l17.39-35.3c13.11-26.62,45.14-37.8,71.96-25.12l26.43,12.48
		C340.277,98.121,344.717,133.051,338.117,147.361z"/>
	<circle style="fill:#4D4D4D;" cx="312.18" cy="112.995" r="7.333"/>
	<path style="fill:#CCBAAC;" d="M195.44,117.191l-122.7,217.88C28.76,304.321,0,253.291,0,195.551c0-32.56,9.14-62.98,25-88.83
		c49.06-9.5,96.58-22.19,133.05-32.92C183.98,66.161,206.81,92.671,195.44,117.191z"/>
</g>
</svg>